<?xml version="1.0" standalone="no"?><!DOCTYPE svg PUBLIC "-//W3C//DTD SVG 1.1//EN" "http://www.w3.org/Graphics/SVG/1.1/DTD/svg11.dtd">
<svg t="1512659624892" class="icon" style="" viewBox="0 0 1024 1024" version="1.1" xmlns="http://www.w3.org/2000/svg"
     p-id="4496"
     width="200" height="200"><defs><style type="text/css"></style></defs><path d="M270.848 283.648c0 5.12 2.56 9.728 7.168 12.288 4.096 2.56 9.728 2.56 14.336 0 4.096-2.56 7.168-7.168 7.168-12.288 0-7.68-6.656-14.336-14.336-14.336s-14.336 6.656-14.336 14.336zM829.44 262.656c-11.264 0-19.968 9.216-19.968 20.48s8.704 20.48 19.968 20.48 19.968-9.216 19.968-20.48c0.512-11.264-8.704-20.48-19.968-20.48z m0 35.328c-8.704 0-15.36-7.168-15.36-15.36 0-8.704 7.168-15.36 15.36-15.36 8.192 0.512 14.848 7.168 15.36 15.36 0 8.704-6.656 15.36-15.36 15.36z m-184.32 418.304c-8.192-25.088-16.384-49.152-24.576-74.24-12.288-37.376-24.576-74.24-37.376-111.616-2.56-7.68-9.216-12.8-16.896-12.8H439.808v-1.024c0.512-1.024-0.512-2.048-1.536-2.56-1.536-1.024-4.096-1.024-5.632 1.024-0.512 0.512-1.024 1.536-1.536 2.048H240.64c-3.072 0-6.656-0.512-9.728 1.024-5.632 1.536-9.728 6.144-11.776 11.776h0.512c-11.776 34.304-23.04 68.608-34.304 103.424l-25.088 75.776-0.512 1.536c-1.536 4.608-3.072 9.216-2.56 14.848v147.456c0 4.608 0 11.776 5.632 16.896 4.096 4.096 10.24 4.608 14.848 4.608 0.512 0 1.024 0 1.024-0.512h449.536c3.072 0 9.216-0.512 13.824-4.608 3.072-3.072 5.12-7.68 5.12-13.824v-148.992c-1.024-3.072-1.024-6.144-2.048-10.24z m-11.264 13.312v146.432c0 3.072-1.024 4.096-1.024 4.608l-0.512 0.512c-1.024 0.512-2.56 1.024-4.608 1.024H178.176c-2.56 0-6.144 0.512-7.168-1.024l-0.512-0.512c-1.536-1.536-1.536-4.608-1.536-7.68v-147.456h-7.68l7.68-1.024c-0.512-3.072 1.024-6.656 2.048-10.24l0.512-1.536 25.088-75.776c11.776-34.304 23.04-68.608 34.304-103.424l-4.608-1.536 4.096 1.024c0.512-1.536 2.048-3.072 3.072-3.072 2.048-0.512 4.096-0.512 6.656-0.512h180.224c-3.072 3.584-6.656 7.168-10.24 10.752-1.536 1.536-1.536 3.584 0 5.632 1.536 1.536 3.584 1.536 5.632 0 5.632-5.12 10.24-10.752 14.848-16.384h136.192c2.048 0 4.096 1.536 4.608 3.584l37.376 111.616c8.192 25.088 16.384 49.152 24.576 74.24 0.512 2.048 0.512 4.096 0.512 6.656v4.096z m-17.92-12.288H476.672c-4.096 0-9.728 1.024-13.824 5.12-4.608 4.096-4.608 10.752-5.12 13.824-0.512 12.8-5.632 25.088-13.824 34.816-9.728 11.264-24.064 18.432-38.912 18.944-12.288 0.512-25.088-3.072-35.328-10.752-13.312-9.216-22.016-25.6-23.04-41.984-0.512-3.584-0.512-10.752-6.144-15.36-4.096-3.584-9.216-4.608-13.312-4.608H187.904c-3.584 0-6.656 3.072-6.656 6.656 0 3.584 3.072 6.656 6.656 6.656h138.752c2.56 0.512 4.096 0.512 4.608 1.024l0.512 0.512c1.024 1.024 1.536 4.608 1.536 6.656 1.024 20.48 11.264 39.936 28.16 51.712 11.776 8.704 25.6 13.312 39.936 13.312 1.536 0 2.56-0.512 4.096-0.512 18.432-1.024 35.84-9.216 48.128-23.04 10.752-11.776 16.384-27.136 16.896-42.496 0.512-1.024 0.512-4.096 1.536-5.12l0.512-0.512c0.512-0.512 1.536-1.024 4.608-1.024h138.752c3.584 0 6.656-3.072 6.656-6.656 0-4.096-3.072-7.168-6.656-7.168z m266.752-267.776s-10.24 34.304-30.208 39.424c0 0 25.088 10.24 30.208 35.84 0 0 3.584-36.864 33.28-37.376 0-0.512-31.744-17.408-33.28-37.888zM294.4 184.832s3.072-28.16 25.088-28.672c0 0.512-24.576-12.8-25.088-28.672 0 0-7.68 26.624-23.552 30.208 0 0 19.456 7.68 23.552 27.136z m620.032 208.384s-3.584 12.8-11.264 14.848c0 0 9.216 3.584 11.264 13.312 0 0 1.536-13.824 12.288-13.824 0 0-11.776-6.656-12.288-14.336z m-430.08 86.016c9.216-4.608 18.432-11.776 27.648-19.968 1.024-1.024 1.536-2.56 1.536-3.584-0.512-1.536-1.536-2.56-2.56-3.072-1.024 0-2.56 0.512-3.584 1.024-8.704 7.68-17.408 13.824-26.624 18.944-2.048 1.024-2.56 3.072-1.536 5.12 1.536 1.536 3.584 2.048 5.12 1.536z m-114.176-42.496c2.048-0.512 3.072-2.56 3.072-4.608-1.024-3.072-1.024-6.144-0.512-9.216l3.584-11.776c1.536-3.072 3.584-5.632 6.144-8.192 1.536-1.536 1.536-3.584 0-5.632-1.536-1.536-3.584-1.536-5.632 0-9.728 10.24-13.824 23.04-11.264 36.864 0.512 2.048 2.56 3.584 4.608 2.56z m157.184 8.192c6.656-7.168 13.312-15.36 19.968-24.064 0.512-1.024 1.024-2.048 1.024-2.56-0.512-1.536-1.024-2.048-2.048-2.56-1.024-0.512-2.048-1.024-2.56-1.024-1.024 0.512-2.048 0.512-2.56 1.536-6.656 8.704-12.8 16.384-19.456 23.552-1.536 1.536-1.536 3.584 0.512 5.632 1.536 1.024 3.584 1.024 5.12-0.512z m-133.12-51.2c0.512 0 1.024 0 1.536-0.512 9.728-4.608 21.504-5.632 31.232-3.072 2.048 0.512 4.096-0.512 4.608-2.56 0.512-2.048-0.512-4.096-2.56-4.608-11.264-3.072-24.576-2.048-36.352 3.072-1.536 1.024-2.56 2.56-2.048 4.096 0 2.048 1.536 3.584 3.584 3.584z m61.44 37.888c0 1.536 1.024 2.56 2.048 3.072 1.536 0.512 2.56 0.512 3.584-0.512 1.024-1.024 1.536-2.048 1.536-3.584-2.048-16.896-8.192-30.208-17.92-38.912-1.536-1.536-4.096-1.024-5.632 0.512-1.536 1.536-1.536 3.584 0.512 5.632 9.216 7.68 14.336 18.944 15.872 33.792zM407.04 476.16c-1.024 2.048-0.512 4.096 1.536 5.12 8.192 4.096 16.384 6.656 24.576 8.192h1.024c2.048 0 3.584-1.536 3.584-3.584 0.512-2.048-1.536-3.584-3.072-4.096-7.68-1.024-14.848-3.584-22.528-7.168-1.536-1.024-3.584 0-5.12 1.536z m55.808-25.6c-0.512-1.024-1.536-1.536-2.56-1.536-2.048-0.512-4.096 1.536-4.096 3.584-1.024 10.24-3.072 19.968-6.144 29.184-1.536 0-3.072 0.512-4.096 0.512-2.048 0-3.584 1.536-3.584 3.584s1.536 3.584 3.584 3.584h1.536c-1.536 3.584-3.072 7.168-5.12 10.752-1.024 2.048-0.512 4.096 1.536 5.12 2.048 1.024 4.096 0.512 5.12-1.536 2.56-4.608 4.608-9.728 6.656-14.848 3.072-0.512 6.656-1.024 9.216-2.048 2.048-0.512 3.072-2.56 2.56-4.608-0.512-2.048-2.56-3.072-4.608-2.56-1.536 0.512-3.072 1.024-4.608 1.024 2.56-8.704 4.608-17.92 5.632-27.648 0-0.512-0.512-1.536-1.024-2.56z m-88.576-4.608c-1.536 1.024-2.048 3.584-1.024 5.632 4.096 6.144 9.216 11.776 15.872 16.896l7.168 5.632c1.536 1.536 4.096 1.024 5.632-1.024 1.536-1.536 1.024-4.096-1.024-5.632-2.56-1.536-4.608-3.584-6.656-5.632-6.144-5.12-10.752-10.24-14.336-15.872-1.536-1.024-4.096-1.536-5.632 0z m210.432-92.16c2.048 1.024 4.096 0.512 5.12-1.536 8.704-16.896 13.824-28.672 13.824-29.184 1.024-2.048 0.512-4.096-2.048-5.12-1.024-0.512-2.048-0.512-3.072 0-1.024 0.512-1.536 1.024-2.048 2.048 0 0-4.608 11.776-13.824 28.672-1.024 1.536 0 3.584 2.048 5.12z m-28.16 51.2c1.536 0 2.56-0.512 3.584-2.048 7.168-10.24 13.312-20.992 19.456-31.744 0.512-1.024 0.512-2.048 0.512-3.072-0.512-1.024-1.024-2.048-1.536-2.56-1.024-0.512-2.048-0.512-3.072-0.512-1.024 0.512-2.048 1.024-2.56 2.048-6.144 10.752-12.288 20.992-18.944 31.232-1.024 1.024-1.024 2.56-0.512 3.584 0.512 2.56 1.536 3.072 3.072 3.072z m65.024-80.384l-4.096 48.64 27.136-35.84-23.04-12.8z m-88.064-52.224l64 28.672L701.44 218.624l-79.36 86.528 79.36 26.112 44.032-160.768-211.968 101.888z m-155.648 304.64c8.192-5.632 16.384-11.264 24.064-17.408 1.024-1.024 1.536-2.048 1.536-3.584-0.512-1.536-1.024-2.56-2.56-3.072-1.536-0.512-2.56-0.512-3.584 0.512-7.68 6.144-15.36 11.776-23.552 16.896-2.048 1.024-2.56 3.584-1.024 5.632 0.512 1.536 3.072 2.048 5.12 1.024z m-13.312 7.168l-3.584-6.656c-16.384 9.216-28.16 13.824-28.16 13.824l2.56 7.168c1.024-0.512 12.8-5.12 29.184-14.336zM130.56 342.528s-7.68 26.624-23.552 30.208c0 0 19.456 7.68 23.552 27.136 0 0 3.072-28.16 25.088-28.672 0 0-24.576-12.8-25.088-28.672z m620.032 265.728s-3.584 12.8-11.264 14.848c0 0 9.216 3.584 11.264 13.312 0 0 1.536-13.824 12.288-13.824 0 0-11.776-6.656-12.288-14.336z" p-id="4497" fill="#bfbfbf"></path></svg>